<svg width="124" height="24" viewBox="0 0 124 24" fill="none" xmlns="http://www.w3.org/2000/svg">
<path fill-rule="evenodd" clip-rule="evenodd" d="M11.9998 18.7717L6.00748 21.8294C5.63981 22.017 5.21602 21.7034 5.28785 21.297L6.42836 14.8429L1.61094 10.2852C1.30668 9.99737 1.47 9.4854 1.88474 9.42691L8.55646 8.48597L11.5541 2.59078C11.7394 2.22628 12.2601 2.22628 12.4455 2.59078L15.4431 8.48597L22.1148 9.42691C22.5296 9.4854 22.6929 9.99737 22.3886 10.2852L17.5712 14.8429L18.7117 21.297C18.7836 21.7034 18.3598 22.017 17.9921 21.8294L11.9998 18.7717Z" fill="#FFBA49"/>
<path fill-rule="evenodd" clip-rule="evenodd" d="M36.9998 18.7717L31.0075 21.8294C30.6398 22.017 30.216 21.7034 30.2878 21.297L31.4284 14.8429L26.6109 10.2852C26.3067 9.99737 26.47 9.4854 26.8847 9.42691L33.5565 8.48597L36.5541 2.59078C36.7394 2.22628 37.2601 2.22628 37.4455 2.59078L40.4431 8.48597L47.1148 9.42691C47.5296 9.4854 47.6929 9.99737 47.3886 10.2852L42.5712 14.8429L43.7117 21.297C43.7836 21.7034 43.3598 22.017 42.9921 21.8294L36.9998 18.7717Z" fill="#FFBA49"/>
<path fill-rule="evenodd" clip-rule="evenodd" d="M61.9998 18.7717L56.0075 21.8294C55.6398 22.017 55.216 21.7034 55.2878 21.297L56.4284 14.8429L51.6109 10.2852C51.3067 9.99737 51.47 9.4854 51.8847 9.42691L58.5565 8.48597L61.5541 2.59078C61.7394 2.22628 62.2601 2.22628 62.4455 2.59078L65.4431 8.48597L72.1148 9.42691C72.5296 9.4854 72.6929 9.99737 72.3886 10.2852L67.5712 14.8429L68.7117 21.297C68.7836 21.7034 68.3598 22.017 67.9921 21.8294L61.9998 18.7717Z" fill="#FFBA49"/>
<path fill-rule="evenodd" clip-rule="evenodd" d="M86.9998 18.7717L81.0075 21.8294C80.6398 22.017 80.216 21.7034 80.2878 21.297L81.4284 14.8429L76.6109 10.2852C76.3067 9.99737 76.47 9.4854 76.8847 9.42691L83.5565 8.48597L86.5541 2.59078C86.7394 2.22628 87.2601 2.22628 87.4455 2.59078L90.4431 8.48597L97.1148 9.42691C97.5296 9.4854 97.6929 9.99737 97.3886 10.2852L92.5712 14.8429L93.7117 21.297C93.7836 21.7034 93.3598 22.017 92.9921 21.8294L86.9998 18.7717Z" fill="#FFBA49"/>
<path fill-rule="evenodd" clip-rule="evenodd" d="M112 18.7717L106.007 21.8294C105.64 22.017 105.216 21.7034 105.288 21.297L106.428 14.8429L101.611 10.2852C101.307 9.99737 101.47 9.4854 101.885 9.42691L108.556 8.48597L111.554 2.59078C111.739 2.22628 112.26 2.22628 112.445 2.59078L115.443 8.48597L122.115 9.42691C122.53 9.4854 122.693 9.99737 122.389 10.2852L117.571 14.8429L118.712 21.297C118.784 21.7034 118.36 22.017 117.992 21.8294L112 18.7717Z" fill="#FFBA49"/>
</svg>
